HIERARCHY
ROOT Hips
{
	OFFSET 0.000000 0.000000 0.000000
	CHANNELS 6 Xposition Yposition Zposition Zrotation Yrotation Xrotation 
	JOINT LHipJoint
	{
		OFFSET 0.000000 0.000000 0.000000
		CHANNELS 3 Zrotation Yrotation Xrotation
		JOINT LeftUpLeg
		{
			OFFSET 1.363060 -1.794630 0.839290
			CHANNELS 3 Zrotation Yrotation Xrotation
			JOINT LeftLeg
			{
				OFFSET 2.448110 -6.726130 0.000000
				CHANNELS 3 Zrotation Yrotation Xrotation
				JOINT LeftFoot
				{
					OFFSET 2.562200 -7.039590 0.000000
					CHANNELS 3 Zrotation Yrotation Xrotation
					JOINT LeftToeBase
					{
						OFFSET 0.157640 -0.433110 2.322550
						CHANNELS 3 Zrotation Yrotation Xrotation
						End Site
						{
							OFFSET 0.000000 0.000000 0.000000
						}
					}
				}
			}
		}
	}
	JOINT RHipJoint
	{
		OFFSET 0.000000 0.000000 0.000000
		CHANNELS 3 Zrotation Yrotation Xrotation
		JOINT RightUpLeg
		{
			OFFSET -1.305520 -1.794630 0.839290
			CHANNELS 3 Zrotation Yrotation Xrotation
			JOINT RightLeg
			{
				OFFSET -2.542530 -6.985550 0.000000
				CHANNELS 3 Zrotation Yrotation Xrotation
				JOINT RightFoot
				{
					OFFSET -2.568260 -7.056230 0.000000
					CHANNELS 3 Zrotation Yrotation Xrotation
					JOINT RightToeBase
					{
						OFFSET -0.164730 -0.452590 2.363150
						CHANNELS 3 Zrotation Yrotation Xrotation
						End Site
						{
							OFFSET 0.000000 0.000000 0.000000
						}
					}
				}
			}
		}
	}
}
MOTION
Frames: 30
Frame Time: 0.008333
-1.370572 16.965302 -0.198426 37.720760 84.992493 49.878227 -8.989462 1.001273 5.641555 -11.863240 -8.361764 -34.884360 -3.028975 -0.237425 13.383689 -0.775619 -5.352448 4.595542 -0.640200 -0.000000 -33.171000 10.737943 -4.673220 0.539115 6.245807 -9.164355 -1.419124 1.892061 -2.029678 26.998139 1.245355 15.534051 4.373739 2.614900 -0.000001 -64.117501
-1.207436 16.977325 -0.182364 40.640103 84.828202 52.517760 -8.917543 1.126408 5.542477 -12.546601 -7.972571 -34.185964 -3.085490 -0.198421 13.904283 -0.790116 -5.586163 4.217997 -0.658500 0.000000 -31.877000 10.992162 -4.711415 0.429944 5.469488 -10.065059 -2.341623 1.597240 -2.250391 29.448162 1.151995 15.854824 6.544747 3.263901 -0.000000 -66.798300
-1.046931 16.988859 -0.167505 42.897372 84.633756 54.518448 -8.861796 1.246796 5.450873 -13.173583 -7.565985 -33.464891 -3.144838 -0.170901 14.326670 -0.807074 -5.861444 3.774287 -0.676200 -0.000000 -30.408700 11.222681 -4.725638 0.319551 4.751558 -10.965295 -3.382817 1.292763 -2.451950 31.995111 1.026396 16.054173 8.856881 3.965300 -0.000000 -68.833700
-0.889184 16.999870 -0.153220 44.663395 84.407944 56.054770 -8.811800 1.362672 5.373852 -13.752963 -7.184889 -32.717212 -3.207379 -0.156655 14.631304 -0.823079 -6.135166 3.293654 -0.685800 0.000000 -28.843800 11.437765 -4.709903 0.206761 4.075979 -11.860667 -4.540984 0.985180 -2.631810 34.624674 0.868983 16.085283 11.250818 4.674900 -0.000001 -70.109001
-0.734077 17.010557 -0.139685 45.893902 84.162312 57.091206 -8.771864 1.471830 5.311462 -14.274407 -6.819979 -31.975260 -3.270227 -0.153310 14.842960 -0.838138 -6.407602 2.788446 -0.688300 0.000001 -27.276400 11.628419 -4.664647 0.099654 3.478596 -12.705059 -5.803919 0.684671 -2.788278 37.301238 0.683377 15.866838 13.642922 5.318000 0.000000 -70.606700
-0.581647 17.021037 -0.126155 46.754826 83.891108 57.790963 -8.731019 1.575556 5.267341 -14.752927 -6.505499 -31.227436 -3.333531 -0.161989 14.945677 -0.848421 -6.631337 2.282812 -0.678200 -0.000000 -25.801200 11.803326 -4.586344 -0.004674 2.938468 -13.497184 -7.159113 0.398808 -2.923404 40.008326 0.475455 15.349835 15.928351 5.812900 0.000000 -70.271000
-0.431853 17.031605 -0.112665 47.242451 83.600959 58.149611 -8.691990 1.672628 5.238248 -15.185480 -6.230595 -30.487629 -3.394656 -0.180441 14.959776 -0.853152 -6.798748 1.785491 -0.656900 -0.000000 -24.507600 11.957307 -4.478417 -0.102678 2.474179 -14.209061 -8.586673 0.134340 -3.040767 42.712509 0.252069 14.471525 18.001634 6.071100 0.000001 -69.310400
-0.284646 17.042519 -0.098961 47.417555 83.291608 58.222043 -8.652894 1.762896 5.221421 -15.577086 -5.997511 -29.751057 -3.452164 -0.207711 14.890519 -0.850420 -6.888639 1.306142 -0.624400 0.000000 -23.461200 12.091548 -4.343939 -0.194940 2.082593 -14.830645 -10.066831 -0.105896 -3.145978 45.390232 0.019770 13.199156 19.755325 6.023900 -0.000000 -67.911400
-0.140057 17.054075 -0.084895 47.317645 82.963402 58.038021 -8.613932 1.845799 5.212750 -15.930141 -5.803431 -29.010239 -3.504380 -0.242712 14.743495 -0.838708 -6.885693 0.851430 -0.581500 -0.000000 -22.699100 12.206322 -4.187461 -0.282262 1.760414 -15.353296 -11.578855 -0.322119 -3.245194 48.019445 -0.215776 11.528648 21.090396 5.636100 0.000000 -66.254900
0.001901 17.066454 -0.070465 46.957996 82.618088 57.605502 -8.577685 1.920734 5.206949 -16.244134 -5.637218 -28.259010 -3.549569 -0.283980 14.528710 -0.817363 -6.785920 0.423728 -0.530400 0.000000 -22.226400 12.300785 -4.014785 -0.364622 1.507392 -15.768816 -13.103685 -0.516929 -3.343805 50.578426 -0.450248 9.489367 21.927862 4.917300 0.000001 -64.506699
0.141248 17.079784 -0.055766 46.346812 82.256910 56.925697 -8.547499 1.987179 5.198943 -16.517256 -5.486489 -27.491239 -3.586284 -0.330157 14.254730 -0.786280 -6.591708 0.023954 -0.473200 -0.000000 -22.018400 12.374160 -3.831783 -0.441933 1.322491 -16.072019 -14.624927 -0.694004 -3.445835 53.047167 -0.680078 7.149666 22.211790 3.924200 0.000000 -62.749200
0.278027 17.094117 -0.040892 45.488972 81.880591 55.998456 -8.527086 2.045077 5.184143 -16.747641 -5.337169 -26.702000 -3.613549 -0.379942 13.929542 -0.746048 -6.312532 -0.348184 -0.412700 0.000000 -22.028600 12.425777 -3.644106 -0.513488 1.204990 -16.259661 -16.129444 -0.856812 -3.553387 55.405312 -0.901913 4.612402 21.915299 2.753600 0.000001 -60.988300
0.412314 17.109379 -0.026006 44.390041 81.489790 54.825822 -8.520083 2.094712 5.158935 -16.933474 -5.175695 -25.889279 -3.630878 -0.432090 13.559924 -0.697943 -5.963712 -0.692793 -0.351400 -0.000000 -22.197999 12.455116 -3.456733 -0.578085 1.154002 -16.330812 -17.607344 -1.007634 -3.666513 57.631634 -1.112198 2.004556 21.045199 1.526700 0.000000 -59.174600
0.544238 17.125445 -0.011292 43.054082 81.084538 53.411697 -8.530432 2.137111 5.120469 -17.072676 -4.984984 -25.057396 -3.638301 -0.485097 13.155829 -0.644145 -5.568440 -1.011137 -0.291900 -0.000000 -22.462300 12.461333 -3.274216 -0.633009 1.171806 -16.284632 -19.053052 -1.147036 -3.783055 59.703562 -1.306860 -0.538084 19.643854 0.367500 0.000000 -57.232900
0.673944 17.142034 0.003279 41.518636 80.661218 51.793940 -8.557687 2.173736 5.068486 -17.168993 -4.763211 -24.203358 -3.636922 -0.538673 12.713420 -0.586237 -5.139629 -1.299996 -0.235700 -0.000000 -22.768801 12.446838 -3.098415 -0.676782 1.249597 -16.126754 -20.461647 -1.273737 -3.899776 61.599253 -1.481099 -2.882911 17.787602 -0.616200 -0.000000 -55.089500
0.801646 17.158893 0.017664 39.813713 80.218019 50.005357 -8.602309 2.206449 5.002557 -17.225504 -4.501119 -23.333392 -3.628088 -0.591923 12.236544 -0.526696 -4.698779 -1.558612 -0.184199 0.000000 -23.072800 12.412860 -2.930851 -0.706547 1.383937 -15.862177 -21.831834 -1.385031 -4.012127 63.297675 -1.629703 -4.920909 15.582307 -1.352700 -0.000000 -52.696000
0.927642 17.175733 0.031828 37.968346 79.754787 48.080528 -8.665014 2.237685 4.923012 -17.245222 -4.183946 -22.464203 -3.613603 -0.643478 11.737267 -0.468803 -4.274776 -1.789527 -0.139400 -0.000000 -23.338900 12.359983 -2.772571 -0.717836 1.575290 -15.496507 -23.167660 -1.477551 -4.114713 64.780343 -1.747739 -6.577162 13.154843 -1.815699 0.000000 -50.052101
1.052150 17.192220 0.045979 36.045173 79.269615 46.085014 -8.741940 2.269601 4.831301 -17.237619 -3.811155 -21.601278 -3.595917 -0.693195 11.215027 -0.414476 -3.880734 -1.991122 -0.101400 -0.000000 -23.555300 12.292076 -2.621985 -0.709045 1.811781 -15.043208 -24.470462 -1.548075 -4.203363 66.032990 -1.830752 -7.808852 10.639980 -2.019900 0.000000 -47.211499
1.175463 17.208063 0.060363 34.105581 78.762617 44.083785 -8.829479 2.304371 4.728860 -17.212719 -3.378398 -20.754752 -3.577659 -0.740735 10.674644 -0.365795 -3.532262 -2.164230 -0.070500 0.000000 -23.721899 12.212436 -2.477221 -0.678348 2.083369 -14.516876 -25.743445 -1.594439 -4.274511 67.044481 -1.876118 -8.610895 8.169127 -2.013600 0.000000 -44.290400
1.297702 17.222989 0.075320 32.220821 78.234994 42.146915 -8.922021 2.343174 4.616427 -17.183323 -2.888728 -19.923099 -3.561331 -0.786540 10.112622 -0.323645 -3.233201 -2.306883 -0.046000 0.000000 -23.857600 12.125771 -2.335430 -0.627191 2.373016 -13.937424 -26.983870 -1.615992 -4.326614 67.807799 -1.883354 -9.007337 5.856939 -1.861900 0.000000 -41.451900
1.419095 17.236792 0.091168 30.441612 77.692052 40.327502 -9.016680 2.387480 4.494779 -17.159636 -2.333792 -19.121091 -3.549352 -0.829964 9.542765 -0.289762 -2.998442 -2.423288 -0.028200 0.000000 -23.978000 12.034446 -2.195005 -0.554496 2.673113 -13.320147 -28.196327 -1.613866 -4.358411 68.320303 -1.855346 -9.051180 3.792967 -1.632500 -0.000001 -38.876800
1.539727 17.249303 0.108244 28.818218 77.138930 38.674539 -9.109636 2.437869 4.364246 -17.152794 -1.713178 -18.352158 -3.543746 -0.871039 8.970391 -0.264710 -2.831706 -2.514410 -0.016600 -0.000000 -24.107299 11.941512 -2.053993 -0.462025 2.970587 -12.682260 -29.379420 -1.590447 -4.370414 68.584154 -1.797466 -8.810393 2.029642 -1.380200 0.000000 -36.716100
1.659549 17.260403 0.126832 27.390077 76.580816 37.222537 -9.197217 2.494133 4.224387 -17.172613 -1.031578 -17.609725 -3.545773 -0.910125 8.395019 -0.248074 -2.728135 -2.579275 -0.010100 -0.000000 -24.273300 11.849809 -1.910576 -0.353790 3.250833 -12.040418 -30.526581 -1.548577 -4.364403 68.605431 -1.717152 -8.361611 0.577938 -1.141700 -0.000001 -35.048100
1.778514 17.270001 0.147157 26.176857 76.023398 35.988235 -9.277277 2.555971 4.075093 -17.225275 -0.292500 -16.892720 -3.556153 -0.947168 7.821763 -0.239445 -2.684456 -2.618532 -0.008100 -0.000001 -24.493500 11.760830 -1.763784 -0.232783 3.504510 -11.405667 -31.634147 -1.491050 -4.342370 68.394951 -1.623538 -7.785959 -0.588278 -0.935500 0.000000 -33.867300
1.896558 17.278122 0.169318 25.177846 75.471512 34.969986 -9.349142 2.623201 3.916595 -17.313331 0.502032 -16.204907 -3.575100 -0.981671 7.260984 -0.238474 -2.699422 -2.634390 -0.010200 0.000000 -24.772400 11.674744 -1.613397 -0.100819 3.727483 -10.783575 -32.701063 -1.420138 -4.306207 67.966955 -1.526657 -7.163919 -1.523812 -0.767500 -0.000000 -33.093300
2.013550 17.284753 0.193319 24.378766 74.928269 34.151721 -9.412368 2.695046 3.749309 -17.435326 1.344391 -15.544503 -3.601985 -1.013474 6.717684 -0.244112 -2.765470 -2.628033 -0.015700 -0.000000 -25.109801 11.591328 -1.459436 0.039829 3.916986 -10.176080 -33.723986 -1.337369 -4.257880 67.336544 -1.436244 -6.568421 -2.299459 -0.635100 0.000000 -32.599000
2.129333 17.289955 0.219065 23.757046 74.393446 33.509820 -9.465888 2.770026 3.574270 -17.587624 2.216368 -14.901299 -3.635229 -1.043080 6.187360 -0.254263 -2.864214 -2.597838 -0.023300 -0.000000 -25.500500 11.510474 -1.301630 0.185998 4.070254 -9.582836 -34.698494 -1.243662 -4.199376 66.518306 -1.360987 -6.060437 -2.988104 -0.532800 0.000000 -32.247500
2.243773 17.293817 0.246385 23.276848 73.865694 33.009795 -9.509828 2.846784 3.393405 -17.762754 3.100696 -14.270813 -3.672797 -1.070725 5.669235 -0.267037 -2.979590 -2.544109 -0.032100 -0.000000 -25.929700 11.430939 -1.140390 0.336553 4.190241 -8.998887 -35.623590 -1.139743 -4.131746 65.524903 -1.308481 -5.688337 -3.651738 -0.454800 -0.000000 -31.909600
2.356937 17.296486 0.274979 22.883888 73.343717 32.604100 -9.547284 2.924836 3.208343 -17.948537 3.997439 -13.670063 -3.713305 -1.095367 5.182561 -0.282254 -3.115117 -2.476656 -0.042300 -0.000000 -26.371400 11.349250 -0.977818 0.494737 4.290890 -8.412704 -36.506385 -1.026524 -4.054509 64.365552 -1.285344 -5.487849 -4.332009 -0.395600 -0.000001 -31.470799
2.468730 17.298090 0.304633 22.543556 72.820955 32.259081 -9.577200 3.001856 3.022100 -18.136763 4.875097 -13.081980 -3.753737 -1.118501 4.710220 -0.296677 -3.239203 -2.392848 -0.052000 -0.000000 -26.814899 11.264729 -0.814150 0.658222 4.374249 -7.820599 -37.343133 -0.905067 -3.968026 63.045082 -1.295379 -5.470969 -5.046514 -0.349400 0.000000 -30.861800
